Coordinates
version=1
nRows=13
nColumns=38
inDegrees=no

Units are S.I. units (second, meters, Newtons, ...)
If the header above contains a line with 'inDegrees', this indicates whether rotational values are in degrees (yes) or radians (no).

endheader
time	pelvis_tilt	pelvis_list	pelvis_rotation	pelvis_tx	pelvis_ty	pelvis_tz	hip_flexion_r	hip_adduction_r	hip_rotation_r	knee_angle_r	ankle_angle_r	subtalar_angle_r	mtp_angle_r	hip_flexion_l	hip_adduction_l	hip_rotation_l	knee_angle_l	ankle_angle_l	subtalar_angle_l	mtp_angle_l	lumbar_extension	lumbar_bending	lumbar_rotation	arm_flex_r	arm_add_r	arm_rot_r	elbow_flex_r	pro_sup_r	wrist_flex_r	wrist_dev_r	arm_flex_l	arm_add_l	arm_rot_l	elbow_flex_l	pro_sup_l	wrist_flex_l	wrist_dev_l
1.41	-0.154975	0.0260051	0.0198472	1.19836	0.971056	-0.491088	0.573716	-0.0728293	-0.0631112	0.0496976	0.0911544	-0.0167221	-4.18978e-09	-0.1362	0.0252595	0.0326914	0.131852	0.191969	0.0943588	-3.88025e-09	-0.0982706	-0.00471931	-0.0994561	-0.279993	-0.129831	-0.0947122	0.676753	1.40406	-2.60423e-10	-2.27676e-10	0.0869831	-0.25741	0.170793	1.06623	1.37528	7.17597e-11	-5.75477e-10
1.415	-0.155704	0.0244639	0.0249755	1.2053	0.970605	-0.490891	0.573794	-0.0725047	-0.0633065	0.0611151	0.0870099	-0.0192043	-4.18978e-09	-0.1381	0.0217517	0.0339738	0.139741	0.188641	0.09646	-3.88025e-09	-0.096295	-0.00137466	-0.103454	-0.281255	-0.129866	-0.0920686	0.676969	1.40197	-2.60423e-10	-2.27676e-10	0.0866549	-0.256304	0.169925	1.0609	1.37533	7.17597e-11	-5.75477e-10
1.42	-0.15639	0.0231058	0.0298806	1.2123	0.97019	-0.490678	0.573847	-0.072295	-0.0632388	0.0733996	0.0832197	-0.0216969	-4.18978e-09	-0.139853	0.0183894	0.035182	0.148238	0.184805	0.0981334	-3.88025e-09	-0.0943326	0.00180806	-0.107152	-0.2823	-0.130077	-0.0893927	0.677234	1.40003	-2.60423e-10	-2.27676e-10	0.085929	-0.255134	0.16901	1.05533	1.37562	7.17597e-11	-5.75477e-10
1.425	-0.15703	0.0219181	0.0345226	1.21935	0.969806	-0.490444	0.573867	-0.0721894	-0.0629094	0.0865024	0.0797794	-0.0241951	-4.18978e-09	-0.141455	0.0151706	0.0363086	0.15735	0.180465	0.0993777	-3.88025e-09	-0.092384	0.00483015	-0.110537	-0.283127	-0.130461	-0.0866851	0.677545	1.39822	-2.60423e-10	-2.27676e-10	0.0848092	-0.253898	0.168054	1.04952	1.37613	7.17597e-11	-5.75477e-10
1.43	-0.157601	0.0208804	0.0388439	1.22646	0.969451	-0.49018	0.573831	-0.0721551	-0.0623221	0.100295	0.0766648	-0.0266836	-4.18978e-09	-0.142896	0.0120905	0.0373257	0.167097	0.175641	0.10019	-3.88025e-09	-0.0904538	0.00769442	-0.113569	-0.283729	-0.131019	-0.0839491	0.677895	1.3965	-2.60423e-10	-2.27676e-10	0.083306	-0.25259	0.16706	1.04346	1.3768	7.17597e-11	-5.75477e-10
1.435	-0.158064	0.0199725	0.0427718	1.23363	0.969126	-0.489878	0.573705	-0.0721314	-0.0614846	0.114575	0.0738184	-0.0291304	-4.18978e-09	-0.14416	0.00914323	0.0381749	0.177524	0.170365	0.100564	-3.88025e-09	-0.0885594	0.0104032	-0.116169	-0.284097	-0.131747	-0.0811936	0.678271	1.39484	-2.60423e-10	-2.27676e-10	0.0814389	-0.251201	0.166033	1.03714	1.37759	7.17597e-11	-5.75477e-10
1.44	-0.15837	0.0191731	0.0461943	1.24087	0.968839	-0.489523	0.573439	-0.0720372	-0.0604099	0.129108	0.0711526	-0.03149	-4.18978e-09	-0.145234	0.00632645	0.0387658	0.188706	0.164692	0.100492	-3.88025e-09	-0.0867393	0.0129522	-0.118222	-0.284214	-0.13264	-0.0784263	0.678661	1.39323	-2.60423e-10	-2.27676e-10	0.079237	-0.249715	0.164973	1.03053	1.37847	7.17597e-11	-5.75477e-10
1.445	-0.15848	0.018477	0.0489844	1.24817	0.968604	-0.489102	0.57297	-0.0717898	-0.0591195	0.143664	0.0685715	-0.0337088	-4.18978e-09	-0.146108	0.00364845	0.0389847	0.200756	0.158689	0.0999615	-3.88025e-09	-0.0850599	0.0153223	-0.119597	-0.284062	-0.133692	-0.0756532	0.679054	1.39161	-2.60423e-10	-2.27676e-10	0.0767367	-0.24812	0.163876	1.02361	1.37938	7.17597e-11	-5.75477e-10
1.45	-0.158338	0.0178965	0.0510268	1.25551	0.968441	-0.4886	0.572221	-0.0713277	-0.0576481	0.158052	0.0659987	-0.0357308	-4.18978e-09	-0.146774	0.00113287	0.0387082	0.213834	0.152437	0.0989615	-3.88025e-09	-0.0836154	0.0174721	-0.120171	-0.283623	-0.134889	-0.0728823	0.67945	1.39	-2.60423e-10	-2.27676e-10	0.0739789	-0.246405	0.162731	1.01638	1.3803	7.17597e-11	-5.75477e-10
1.455	-0.157874	0.0174677	0.0522388	1.26289	0.968363	-0.488008	0.571098	-0.0706277	-0.0560425	0.172134	0.0633964	-0.0375063	-4.18978e-09	-0.14722	-0.00118059	0.0378177	0.228139	0.146018	0.0974866	-3.88025e-09	-0.0825207	0.0193359	-0.119847	-0.282884	-0.136212	-0.0701194	0.67986	1.38838	-2.60423e-10	-2.27676e-10	0.0710051	-0.244569	0.161524	1.00883	1.38121	7.17597e-11	-5.75477e-10
1.46	-0.157016	0.0172484	0.0525827	1.27029	0.96838	-0.487318	0.569501	-0.0697086	-0.0543574	0.18582	0.0607695	-0.0389978	-4.18978e-09	-0.147427	-0.00324356	0.0362087	0.243905	0.139506	0.095543	-3.88025e-09	-0.0819001	0.0208306	-0.118571	-0.281839	-0.137638	-0.0673676	0.680304	1.38675	-2.60423e-10	-2.27676e-10	0.0678556	-0.242616	0.160238	1.00097	1.38208	7.17597e-11	-5.75477e-10
1.465	-0.155687	0.0172964	0.0520577	1.2777	0.968495	-0.486528	0.567327	-0.0686206	-0.0526485	0.199065	0.0581598	-0.0401823	-4.18978e-09	-0.147359	-0.00501325	0.0337953	0.261372	0.132948	0.0931553	-3.88025e-09	-0.081873	0.021872	-0.116333	-0.280487	-0.139144	-0.0646321	0.680814	1.38512	-2.60423e-10	-2.27676e-10	0.0645686	-0.240556	0.158853	0.99282	1.38292	7.17597e-11	-5.75477e-10
1.47	-0.153824	0.0176547	0.0506955	1.2851	0.968706	-0.485639	0.564489	-0.0674269	-0.0509657	0.211848	0.0556329	-0.0410551	-4.18978e-09	-0.146964	-0.00646913	0.0305149	0.280762	0.126352	0.0903689	-3.88025e-09	-0.0825366	0.0223945	-0.113161	-0.278838	-0.140709	-0.0619153	0.681427	1.38351	-2.60423e-10	-2.27676e-10	0.06118	-0.2384	0.157353	0.984409	1.38372	7.17597e-11	-5.75477e-10
